<svg xmlns="http://www.w3.org/2000/svg" version="1.1" xmlns:xlink="http://www.w3.org/1999/xlink" xmlns:svgjs="http://svgjs.com/svgjs" width="1365.333" height="1365.333"><svg version="1.0" xmlns="http://www.w3.org/2000/svg" width="1365.333" height="1365.333" viewBox="0 0 1024 1024">
    <rect width="1024" height="1024" fill="#001827"/>
    <path fill="#fff" d="M264.2 265.3 17 512.5 264.5 760 512 1007.5 759.5 760 1007 512.5 759.8 265.3C623.8 129.3 512.3 18 512 18c-.3 0-111.8 111.3-247.8 247.3zm438.5 55.9C807.4 425.9 893 511.9 893 512.5c0 .5-85.7 86.7-190.5 191.5L512 894.5l-191-191-191-191 190.7-190.7c105-105 191-190.8 191.3-190.8.3 0 86.1 85.6 190.7 190.2z"></path>
    <path fill="#fff" d="M440.8 347c-12.6 12.6-22.8 23.3-22.8 23.7 0 .5 53 53.7 117.8 118.4l117.7 117.7 23.2-23.3 23.1-23.2-47.4-47.4-47.4-47.4 47.5-47.5 47.5-47.5-23.3-23.3-23.2-23.2-47.5 47.5-47.5 47.5-47.5-47.4-47.5-47.5-22.7 22.9zM347 441.2 324.5 464l47.3 47.3 47.2 47.2-47.4 47.7-47.3 47.6 23 23 23 23 47.5-47.5 47.5-47.5 47.3 47.3c26 26 47.5 47.1 47.8 46.9 6.6-6.3 45.6-45.5 45.6-45.9 0-1.2-234.5-235.1-235.5-234.9-.6 0-11.1 10.4-23.5 23z"></path>
</svg></svg>
