<?xml version="1.0" standalone="no"?>
<!DOCTYPE svg PUBLIC "-//W3C//DTD SVG 20010904//EN"
 "http://www.w3.org/TR/2001/REC-SVG-20010904/DTD/svg10.dtd">
<svg version="1.0" xmlns="http://www.w3.org/2000/svg"
 width="1024.000000pt" height="1024.000000pt" viewBox="0 0 1024.000000 1024.000000"
 preserveAspectRatio="xMidYMid meet">
<metadata>
Created by potrace 1.14, written by Peter Selinger 2001-2017
</metadata>
<g transform="translate(0.000000,1024.000000) scale(0.100000,-0.100000)"
fill="#000000" stroke="none">
<path d="M2642 7587 l-2472 -2472 2475 -2475 2475 -2475 2475 2475 2475 2475
-2472 2472 c-1360 1360 -2475 2473 -2478 2473 -3 0 -1118 -1113 -2478 -2473z
m4385 -559 c1047 -1047 1903 -1907 1903 -1913 0 -5 -857 -867 -1905 -1915
l-1905 -1905 -1910 1910 -1910 1910 1907 1907 c1050 1050 1910 1908 1913 1908
3 0 861 -856 1907 -1902z"/>
<path d="M4408 6770 c-126 -126 -228 -233 -228 -237 0 -5 530 -537 1178 -1184
l1177 -1177 232 233 231 232 -474 474 -474 474 475 475 475 475 -233 233 -232
232 -475 -475 -475 -475 -475 474 -475 475 -227 -229z"/>
<path d="M3470 5828 l-225 -228 473 -473 472 -472 -474 -477 -473 -476 230
-230 230 -230 475 475 475 475 473 -473 c260 -260 475 -471 478 -469 66 63
456 455 456 459 0 12 -2345 2351 -2355 2349 -6 0 -111 -104 -235 -230z"/>
</g>
</svg>
