<svg xmlns="http://www.w3.org/2000/svg" data-name="Layer 1" width="975.58652" height="731" viewBox="0 0 975.58652 731" xmlns:xlink="http://www.w3.org/1999/xlink"><title>pull_request</title><path d="M927.99823,455.98291s-11.298-18.03876-8.18787-37.57709S939.261,385.22833,939.261,385.22833s11.298,18.0387,8.18786,37.577S927.99823,455.98291,927.99823,455.98291Z" transform="translate(-112.20674 -84.5)" fill="#f2f2f2"/><path d="M800.57111,524.62976c-5.77344-18.92322,2.93048-38.34692,2.93048-38.34692s18.06445,11.25677,23.83783,30.18c2.91137,9.54248,2.14038,19.20892.66137,26.451A158.14737,158.14737,0,0,1,867.1073,492.733c-.34088-.4386-.52142-.68951-.52142-.68951s1.07623-.56531,2.96069-1.36115c.25952-.21533.51221-.43609.77338-.65014,27.2489-22.33478,63.30615-38.7674,110.14587-50.2024-.11963-.19116-.2215-.35675-.31-.50274-.068-.03839-.115-.06525-.115-.06525l.04279-.05383c-.20209-.33624-.30853-.52582-.30853-.52582s.381-.14771,1.06646-.38025c3.10608-3.60113,15.09784-16.34857,31.73328-19.54895,19.4281-3.73761,37.82123,6.97369,37.82123,6.97369a65.75781,65.75781,0,0,1-22.01563,17.08631,65.87463,65.87463,0,0,1,18.82831,20.07178s-19.82257,7.75268-38.44385,1.06933c-14.1839-5.0907-23.57275-17.08081-27.2453-22.51-44.91314,10.89948-79.85693,26.38086-106.58935,47.23712,7.286-2.37078,18.43445-4.68945,29.736-2.01934,19.25427,4.549,31.64545,21.855,31.64545,21.855s-18.82612,9.9306-38.08039,5.38159c-15.11645-3.57141-25.99914-15.00256-29.97992-19.7522-32.64923,28.15491-51.81823,66.63074-51.4693,103.682a146.66859,146.66859,0,0,0,3.86457,30.5733c.55108,2.47174,1.1452,4.956,1.74121,7.449,3.27447,13.6936,6.66064,27.85339,3.15875,41.54638a49.01572,49.01572,0,0,1-15.18,24.15381l-1.20264-1.363a47.18157,47.18157,0,0,0,14.62183-23.2414c3.39038-13.25708.05755-27.19446-3.16584-40.67316-.59826-2.50183-1.19445-4.99578-1.74688-7.47656a148.42816,148.42816,0,0,1-3.90869-30.95141A119.773,119.773,0,0,1,823.1875,553.989C819.03418,551.08191,805.43726,540.57941,800.57111,524.62976Z" transform="translate(-112.20674 -84.5)" fill="#f2f2f2"/><circle cx="1070.52551" cy="446.39409" r="17.26634" transform="translate(11.18469 1031.3936) rotate(-57.89075)" fill="#f2f2f2"/><path d="M272.00177,455.98291s11.298-18.03876,8.18787-37.57709S260.739,385.22833,260.739,385.22833s-11.298,18.0387-8.18786,37.577S272.00177,455.98291,272.00177,455.98291Z" transform="translate(-112.20674 -84.5)" fill="#f2f2f2"/><path d="M399.42889,524.62976c5.77344-18.92322-2.93048-38.34692-2.93048-38.34692s-18.06445,11.25677-23.83783,30.18c-2.91137,9.54248-2.14038,19.20892-.66137,26.451A158.14737,158.14737,0,0,0,332.8927,492.733c.34088-.4386.52142-.68951.52142-.68951s-1.07623-.56531-2.96069-1.36115c-.25952-.21533-.51221-.43609-.77338-.65014-27.2489-22.33478-63.30615-38.7674-110.14587-50.2024.11963-.19116.2215-.35675.31-.50274.068-.03839.115-.06525.115-.06525l-.04279-.05383c.20209-.33624.30853-.52582.30853-.52582s-.381-.14771-1.06646-.38025c-3.10608-3.60113-15.09784-16.34857-31.73328-19.54895-19.4281-3.73761-37.82123,6.97369-37.82123,6.97369A65.75781,65.75781,0,0,0,171.61957,442.813a65.87463,65.87463,0,0,0-18.82831,20.07178s19.82257,7.75268,38.44385,1.06933c14.1839-5.0907,23.57275-17.08081,27.2453-22.51,44.91314,10.89948,79.85693,26.38086,106.58935,47.23712-7.286-2.37078-18.43445-4.68945-29.736-2.01934-19.25427,4.549-31.64545,21.855-31.64545,21.855s18.82612,9.9306,38.08039,5.38159c15.11645-3.57141,25.99914-15.00256,29.97992-19.7522,32.64923,28.15491,51.81823,66.63074,51.4693,103.682a146.66859,146.66859,0,0,1-3.86457,30.5733c-.55108,2.47174-1.1452,4.956-1.74121,7.449-3.27447,13.6936-6.66064,27.85339-3.15875,41.54638a49.01572,49.01572,0,0,0,15.18,24.15381l1.20264-1.363a47.18157,47.18157,0,0,1-14.62183-23.2414c-3.39038-13.25708-.05755-27.19446,3.16584-40.67316.59826-2.50183,1.19445-4.99578,1.74688-7.47656a148.42816,148.42816,0,0,0,3.90869-30.95141A119.773,119.773,0,0,0,376.8125,553.989C380.96582,551.08191,394.56274,540.57941,399.42889,524.62976Z" transform="translate(-112.20674 -84.5)" fill="#f2f2f2"/><circle cx="129.47449" cy="446.39409" r="17.26633" transform="translate(-329.67606 52.60245) rotate(-32.10925)" fill="#f2f2f2"/><ellipse cx="309.29326" cy="616" rx="66" ry="11" fill="#3f3d56"/><ellipse cx="668.29326" cy="616" rx="66" ry="11" fill="#3f3d56"/><path d="M857.5,804.5c0,4.91-73.29,9.06-174.5,10.48-24.12.34-49.82.52-76.5.52-28.18,0-55.27-.2-80.56-.58-99.11-1.47-170.44-5.58-170.44-10.42,0-4.58,63.66-8.49,154.25-10.16,29.77-.54,62.46-.84,96.75-.84,32.78,0,64.09.28,92.8.77C791.99,795.89,857.5,799.86,857.5,804.5Z" transform="translate(-112.20674 -84.5)" fill="#3f3d56"/><polygon points="332.621 527.348 317.317 544.353 353.877 578.363 364.08 545.203 332.621 527.348" fill="#a0616a"/><polygon points="658.265 527.348 673.569 544.353 637.009 578.363 626.806 545.203 658.265 527.348" fill="#a0616a"/><path d="M548.55772,328.71653,529.00208,375.48s-28.05809,34.0098-23.80687,83.324L437.1756,616.94964l35.7103,29.75858L500.944,578.68861s21.25613-20.40588,22.95662-52.7152l72.27084-119.03432L674.394,517.471s16.15466,51.865,32.30932,61.21765l35.71029,68.01961,38.261-26.3576L694.79988,458.804s-11.90343-69.7201-35.71029-90.126l-5.10147-35.71029L594.471,304.05942Z" transform="translate(-112.20674 -84.5)" fill="#2f2e41"/><path d="M466.06691,686.2701a49.3975,49.3975,0,0,1-3.384,8.9021c-8.50245,17.0049-53.56544-9.3527-53.56544-9.3527s-67.16937-25.50735-56.96643-53.56544c.21256-.57817.43364-1.13936.68024-1.675,11.26575-25.3373,52.035-.87573,52.035-.87573l28.90834-10.20294,17.0049,20.40588,17.00491,17.43854A75.7992,75.7992,0,0,1,466.06691,686.2701Z" transform="translate(-112.20674 -84.5)" fill="#2f2e41"/><path d="M466.06691,686.2701a49.3975,49.3975,0,0,1-3.384,8.9021c-8.50245,17.0049-53.56544-9.3527-53.56544-9.3527s-67.16937-25.50735-56.96643-53.56544c.21256-.57817.43364-1.13936.68024-1.675,11.80981-1.709,31.442-.42513,44.38276,22.08089C412.34,678.96653,449.85268,684.92675,466.06691,686.2701Z" transform="translate(-112.20674 -84.5)" fill="#3f3d56"/><path d="M749.2326,686.2701a49.3975,49.3975,0,0,0,3.384,8.9021c8.50245,17.0049,53.56544-9.3527,53.56544-9.3527s67.16937-25.50735,56.96643-53.56544c-.21256-.57817-.43364-1.13936-.68024-1.675-11.26575-25.3373-52.035-.87573-52.035-.87573l-28.90834-10.20294L764.52,639.90626,747.51508,657.3448A75.7992,75.7992,0,0,0,749.2326,686.2701Z" transform="translate(-112.20674 -84.5)" fill="#2f2e41"/><path d="M749.2326,686.2701a49.3975,49.3975,0,0,0,3.384,8.9021c8.50245,17.0049,53.56544-9.3527,53.56544-9.3527s67.16937-25.50735,56.96643-53.56544c-.21256-.57817-.43364-1.13936-.68024-1.675-11.80981-1.709-31.442-.42513-44.38276,22.08089C802.95954,678.96653,765.44683,684.92675,749.2326,686.2701Z" transform="translate(-112.20674 -84.5)" fill="#3f3d56"/><circle cx="463.1337" cy="53.33649" r="33.15956" fill="#a0616a"/><polygon points="456.757 75.868 463.559 110.728 489.066 121.781 510.322 92.873 489.916 58.863 456.757 75.868" fill="#a0616a"/><path d="M546.20854,129.75369c.81456,1.01225,2.50439.84414,3.49293.001a7.42,7.42,0,0,0,1.88013-3.35909,7.27047,7.27047,0,0,1,1.8976-3.34708c2.83169-2.362,7.37919.49885,10.7467-1.00354,2.48708-1.10959,3.38968-4.12486,5.18018-6.17689,2.79226-3.20011,7.4614-3.79325,11.69147-4.1726,3.6488-.32722,7.7512-.51568,10.50061,1.90539,2.44294,2.1512,3.00339,5.658,4.09825,8.72346s3.62872,6.28835,6.8525,5.838a5.52425,5.52425,0,0,0,3.94222-3.08075,12.37667,12.37667,0,0,0,1.11571-5.03936,33.806,33.806,0,0,0-37.96622-35.291c-2.21284.27743-4.39175.77287-6.56636,1.26756-2.86007.65061-5.79041,1.33055-8.23654,2.94912-2.21452,1.46531-3.91972,3.63154-6.22269,4.95349-3.61324,2.07407-8.44832,1.93728-11.36737,4.90989a14.19488,14.19488,0,0,0-2.88115,5.57569l-3.80349,11.19c-.64086,1.88546-1.28444,3.93964-.64514,5.82563.83843,2.47346,3.631,3.87754,4.48864,6.34439,1.29573,3.72685-2.37786,7.96148-.79984,11.57786.87919,2.01485,3.1284,3.06431,5.28035,3.51341a7.443,7.443,0,0,0,4.79516-.30466c2.12242-1.04773,3.1661-3.59057,3.12324-5.95712a18.92232,18.92232,0,0,0-1.87836-6.80151l2.95513,2.31331" transform="translate(-112.20674 -84.5)" fill="#2f2e41"/><path d="M619.12806,171.42118l62.91815,32.30931L656.53885,339.76972S591.92022,323.61506,591.07,324.46531,535.804,339.76972,535.804,339.76972L520.49963,208.832l52.04674-30.10226S588.51924,211.3827,619.12806,171.42118Z" transform="translate(-112.20674 -84.5)" fill="#575a89"/><path d="M601.5,637c-16.31836,0-31.48-11.68848-42.69238-32.91211C547.96924,583.57227,542,556.37305,542,527.5s5.96924-56.07227,16.80762-76.58789C570.02,429.68848,585.18164,418,601.5,418s31.48047,11.68848,42.69238,32.91211C655.03125,471.42773,661,498.627,661,527.5s-5.96875,56.07227-16.80762,76.58789C632.98047,625.31152,617.81836,637,601.5,637Zm0-212c-13.59766,0-26.56152,10.36328-36.50342,29.18164C554.68115,473.708,549,499.74609,549,527.5s5.68115,53.792,15.99658,73.31836C574.93848,619.63672,587.90234,630,601.5,630s26.56152-10.36328,36.50293-29.18164C648.31934,581.292,654,555.25391,654,527.5s-5.68066-53.792-15.99707-73.31836C628.06152,435.36328,615.09766,425,601.5,425Z" transform="translate(-112.20674 -84.5)" fill="#3f3d56"/><path d="M513.69766,269.19937l4.25123,65.46888,35.7103,65.46888s18.70539,54.41569,38.261,40.81176-17.85515-51.01471-17.85515-51.01471l-29.75858-65.46887,4.25123-46.76349Z" transform="translate(-112.20674 -84.5)" fill="#a0616a"/><path d="M653.13787,269.19937l-2.55073,49.31422-34.86006,66.31912s-31.45907,49.31422-10.20294,50.16447,34.86005-43.36251,34.86005-43.36251L677.795,329.56678l8.50245-63.76839Z" transform="translate(-112.20674 -84.5)" fill="#a0616a"/><polygon points="426.998 121.781 408.293 124.332 398.09 190.651 441.452 198.303 426.998 121.781" fill="#575a89"/><polygon points="551.984 114.979 569.839 119.23 578.342 189.801 536.68 193.202 551.984 114.979" fill="#575a89"/><path d="M715.5,736.5A110.79654,110.79654,0,0,1,683,814.98c-24.12.34-49.82.52-76.5.52-28.18,0-55.27-.2-80.56-.58A111.00068,111.00068,0,1,1,715.5,736.5Z" transform="translate(-112.20674 -84.5)" fill="#3dc2ff"/><polygon points="492.174 588.625 460.008 657.553 478.389 657.553 478.389 716 505.96 716 505.96 657.553 524.34 657.553 492.174 588.625" fill="#fff"/><circle cx="709.29326" cy="316" r="15" fill="#f2f2f2"/><circle cx="253.29326" cy="247" r="27" fill="#f2f2f2"/></svg>