<?xml version="1.0" encoding="UTF-8" standalone="no"?>
<!-- Created with Inkscape (http://www.inkscape.org/) -->

<svg
   width="2048mm"
   height="2048mm"
   viewBox="0 0 2048 2048"
   version="1.1"
   id="svg1"
   inkscape:version="1.4 (e7c3feb1, 2024-10-09)"
   sodipodi:docname="bandwidth.svg"
   xml:space="preserve"
   xmlns:inkscape="http://www.inkscape.org/namespaces/inkscape"
   xmlns:sodipodi="http://sodipodi.sourceforge.net/DTD/sodipodi-0.dtd"
   xmlns="http://www.w3.org/2000/svg"
   xmlns:svg="http://www.w3.org/2000/svg"><sodipodi:namedview
     id="namedview1"
     pagecolor="#ffffff"
     bordercolor="#000000"
     borderopacity="0.25"
     inkscape:showpageshadow="2"
     inkscape:pageopacity="0.0"
     inkscape:pagecheckerboard="0"
     inkscape:deskcolor="#d1d1d1"
     inkscape:document-units="mm"
     showgrid="true"
     inkscape:zoom="0.050021401"
     inkscape:cx="2059.1186"
     inkscape:cy="2338.9989"
     inkscape:window-width="1728"
     inkscape:window-height="997"
     inkscape:window-x="0"
     inkscape:window-y="511"
     inkscape:window-maximized="0"
     inkscape:current-layer="g1"><inkscape:grid
       id="grid1"
       units="mm"
       originx="0"
       originy="0"
       spacingx="128.00002"
       spacingy="128.00002"
       empcolor="#0099e5"
       empopacity="0.30196078"
       color="#0099e5"
       opacity="0.14901961"
       empspacing="5"
       dotted="false"
       gridanglex="30"
       gridanglez="30"
       visible="true" /></sodipodi:namedview><defs
     id="defs1"><rect
       x="56.692913"
       y="56.693021"
       width="7627.0866"
       height="7627.0866"
       id="rect20" /><rect
       x="2919.8947"
       y="4455.1225"
       width="451.68278"
       height="567.68874"
       id="rect19" /><rect
       x="804.76363"
       y="4023.8182"
       width="3626.5298"
       height="2679.1498"
       id="rect17" /><rect
       x="2353.1696"
       y="1731.7698"
       width="896.44556"
       height="2190.1795"
       id="rect16" /><rect
       x="1650.2748"
       y="1966.0681"
       width="4736.8999"
       height="3320.9233"
       id="rect14" /><rect
       x="2737.4226"
       y="2304.3538"
       width="1855.2454"
       height="705.74177"
       id="rect13" /><rect
       x="1494.6904"
       y="2258.6433"
       width="4484.0712"
       height="3421.1802"
       id="rect12" /><rect
       x="5066.8484"
       y="2504.4294"
       width="1877.4159"
       height="1627.3354"
       id="rect11" /><rect
       x="56.692913"
       y="56.693021"
       width="3700.3115"
       height="4360.3257"
       id="rect10" /><rect
       x="56.692913"
       y="56.693021"
       width="7627.0866"
       height="7627.0866"
       id="rect9" /><rect
       x="20.308132"
       y="20.308132"
       width="6021.3612"
       height="5412.1172"
       id="rect8" /><rect
       x="7683.7795"
       y="56.693021"
       width="3104.2957"
       height="2827.0617"
       id="rect7" /><rect
       x="7683.7795"
       y="7683.7796"
       width="7627.0866"
       height="7627.0866"
       id="rect6" /><rect
       x="0"
       y="7740.4724"
       width="0"
       height="256.92574"
       id="rect3" /><rect
       x="0"
       y="7740.4724"
       width="213.23539"
       height="236.61761"
       id="rect2" /><inkscape:path-effect
       effect="offset"
       id="path-effect2"
       is_visible="true"
       lpeversion="1.3"
       linejoin_type="miter"
       unit="mm"
       offset="-70"
       miter_limit="4"
       attempt_force_join="false"
       update_on_knot_move="true" /></defs><g
     inkscape:label="Layer 1"
     inkscape:groupmode="layer"
     id="layer1"><path
       style="fill:none;stroke:currentColor;stroke-width:120;stroke-linecap:round;paint-order:stroke fill markers;stroke-dasharray:none;stroke-opacity:1"
       id="path2"
       inkscape:path-effect="#path-effect2"
       sodipodi:type="arc"
       sodipodi:cx="1024"
       sodipodi:cy="1024"
       sodipodi:rx="1024"
       sodipodi:ry="1024"
       d="m 1024,70.009766 c 253.0409,0 495.6475,100.489304 674.5742,279.416014 178.9267,178.92672 279.416,421.53331 279.416,674.57422 0,253.0409 -100.4893,495.6475 -279.416,674.5742 -178.9267,178.9267 -421.5333,279.416 -674.5742,279.416 -253.04091,0 -495.6475,-100.4893 -674.57422,-279.416 C 170.49907,1519.6475 70.009766,1277.0409 70.009766,1024 70.009766,770.95909 170.49907,528.3525 349.42578,349.42578 528.3525,170.49907 770.95909,70.009766 1024,70.009766 Z"
       transform="translate(0,2.8483073e-5)" /><g
       style="fill:none;stroke:currentColor;stroke-width:1.5"
       id="g1"
       transform="matrix(51.108947,0,0,51.108947,410.69266,487.35608)"><g
         style="fill:none;stroke:currentColor;stroke-width:1.5"
         id="g2"
         transform="matrix(0.90360916,0,0,0.90360916,1.1566926,-0.81464106)"><path
           stroke-linecap="round"
           stroke-linejoin="round"
           d="m 3,16.5 v 2.25 A 2.25,2.25 0 0 0 5.25,21 h 13.5 A 2.25,2.25 0 0 0 21,18.75 V 16.5 M 16.5,12 12,16.5 m 0,0 L 7.5,12 M 12,16.5 V 3"
           id="path1" /></g></g></g></svg>
